<?xml version="1.0" encoding="iso-8859-1"?>
<!-- Generator: Adobe Illustrator 19.0.0, SVG Export Plug-In . SVG Version: 6.00 Build 0)  -->
<svg version="1.1" id="Capa_1" xmlns="http://www.w3.org/2000/svg" xmlns:xlink="http://www.w3.org/1999/xlink" x="0px" y="0px" viewBox="0 0 480 480" xml:space="preserve">
<g>
	<g>
		<path d="M240,72c-92.632,0-168,75.36-168,168s75.368,168,168,168s168-75.36,168-168S332.632,72,240,72z M240,392
			c-83.816,0-152-68.184-152-152S156.184,88,240,88s152,68.184,152,152S323.816,392,240,392z"/>
	</g>
</g>
<g>
	<g>
		<path d="M472,200h-27.872c-1.816-9.28-4.272-18.464-7.344-27.424l24.144-13.936c1.832-1.064,3.176-2.808,3.728-4.856
			c0.552-2.048,0.264-4.232-0.8-6.072l-32-55.424c-2.216-3.832-7.128-5.144-10.928-2.928l-24.168,13.952
			c-6.216-7.12-12.936-13.832-20.072-20.064L390.64,59.08c1.064-1.832,1.344-4.016,0.8-6.072c-0.544-2.056-1.888-3.8-3.728-4.856
			l-55.424-32c-3.824-2.208-8.728-0.904-10.928,2.928l-13.936,24.136c-8.96-3.064-18.144-5.528-27.424-7.336V8c0-4.416-3.576-8-8-8
			h-64c-4.424,0-8,3.584-8,8v27.88c-9.28,1.816-18.464,4.272-27.424,7.336L158.64,19.08c-2.216-3.832-7.12-5.136-10.928-2.928
			l-55.424,32c-1.832,1.064-3.176,2.808-3.728,4.856c-0.552,2.048-0.264,4.232,0.8,6.072l13.952,24.168
			c-7.136,6.232-13.848,12.944-20.072,20.064L59.08,89.36c-3.824-2.208-8.72-0.896-10.928,2.928l-32,55.424
			c-1.064,1.832-1.344,4.016-0.8,6.072c0.544,2.056,1.888,3.8,3.728,4.856l24.144,13.936c-3.072,8.96-5.536,18.144-7.352,27.424H8
			c-4.424,0-8,3.584-8,8v64c0,4.416,3.576,8,8,8h27.872c1.816,9.28,4.272,18.464,7.344,27.424L19.08,321.36
			c-1.832,1.064-3.176,2.808-3.728,4.856s-0.264,4.232,0.8,6.072l32,55.424c2.208,3.824,7.112,5.128,10.928,2.928l24.168-13.952
			c6.216,7.12,12.936,13.832,20.072,20.064L89.368,420.92c-1.064,1.832-1.344,4.016-0.8,6.072c0.544,2.056,1.888,3.8,3.728,4.856
			l55.424,32c3.816,2.2,8.712,0.896,10.928-2.928l13.936-24.136c8.96,3.072,18.144,5.528,27.424,7.336V472c0,4.416,3.576,8,8,8h64
			c4.424,0,8-3.584,8-8v-27.88c9.28-1.816,18.464-4.272,27.424-7.336l13.936,24.136c2.2,3.832,7.112,5.128,10.928,2.928l55.424-32
			c1.832-1.064,3.176-2.808,3.728-4.856s0.264-4.232-0.8-6.072l-13.952-24.168c7.136-6.232,13.848-12.944,20.072-20.064
			l24.168,13.952c3.808,2.2,8.712,0.888,10.928-2.928l32-55.424c1.064-1.832,1.344-4.016,0.8-6.072
			c-0.544-2.056-1.888-3.8-3.728-4.856l-24.144-13.936c3.072-8.96,5.528-18.144,7.344-27.424H472c4.424,0,8-3.584,8-8v-64
			C480,203.584,476.424,200,472,200z M464,264h-26.576c-3.928,0-7.272,2.848-7.896,6.728c-2.048,12.736-5.424,25.336-10.016,37.432
			c-1.4,3.672,0.08,7.808,3.48,9.776L446,331.224l-24,41.568l-23.032-13.296c-3.408-1.968-7.728-1.168-10.192,1.864
			c-8.168,10-17.384,19.216-27.416,27.408c-3.04,2.48-3.832,6.8-1.864,10.192l13.296,23.024l-41.56,24l-13.288-23.008
			c-1.968-3.408-6.128-4.864-9.776-3.48c-12.096,4.6-24.688,7.968-37.432,10.016c-3.888,0.64-6.736,3.984-6.736,7.912V464h-48
			v-26.576c0-3.928-2.848-7.272-6.728-7.896c-12.744-2.048-25.336-5.424-37.432-10.016c-3.656-1.384-7.808,0.072-9.776,3.48
			L148.776,446l-41.56-24l13.296-23.024c1.96-3.392,1.168-7.712-1.864-10.192c-10.032-8.192-19.248-17.416-27.416-27.408
			c-2.48-3.032-6.808-3.832-10.192-1.864l-23.032,13.296l-24-41.568l23.008-13.288c3.4-1.968,4.872-6.104,3.48-9.776
			c-4.592-12.096-7.968-24.688-10.016-37.432c-0.632-3.896-3.976-6.744-7.904-6.744H16v-48h26.576c3.928,0,7.272-2.848,7.896-6.728
			c2.048-12.736,5.424-25.336,10.016-37.432c1.4-3.672-0.08-7.808-3.48-9.776L34,148.776l24-41.568l23.032,13.296
			c3.392,1.952,7.72,1.16,10.192-1.864c8.168-10,17.384-19.216,27.416-27.408c3.04-2.48,3.832-6.8,1.864-10.192l-13.296-23.024
			l41.56-24l13.288,23.008c1.968,3.408,6.12,4.856,9.776,3.48c12.096-4.6,24.688-7.968,37.432-10.016
			c3.888-0.64,6.736-3.984,6.736-7.912V16h48v26.576c0,3.928,2.848,7.272,6.728,7.896c12.744,2.048,25.336,5.424,37.432,10.016
			c3.648,1.376,7.808-0.072,9.776-3.48L331.224,34l41.56,24l-13.296,23.024c-1.96,3.392-1.168,7.712,1.864,10.192
			c10.032,8.192,19.248,17.416,27.416,27.408c2.472,3.024,6.792,3.824,10.192,1.864l23.032-13.296l24,41.568l-23.008,13.288
			c-3.4,1.968-4.872,6.104-3.48,9.776c4.592,12.096,7.968,24.688,10.016,37.432c0.632,3.896,3.976,6.744,7.904,6.744H464V264z"/>
	</g>
</g>
<g>
	<g>
		<path d="M352,168h-72v-16c0-13.232-10.768-24-24-24h-32c-13.232,0-24,10.768-24,24v16h-72c-4.424,0-8,3.584-8,8v32
			c0,10.416,6.712,19.216,16,22.528V304c0,13.232,10.768,24,24,24h160c13.232,0,24-10.768,24-24v-73.472
			c9.288-3.312,16-12.112,16-22.528v-32C360,171.584,356.424,168,352,168z M216,152c0-4.408,3.584-8,8-8h32c4.416,0,8,3.592,8,8v16
			h-48V152z M328,304c0,4.408-3.584,8-8,8H160c-4.416,0-8-3.592-8-8v-72h64v8c0,4.416,3.576,8,8,8h32c4.424,0,8-3.584,8-8v-8h64V304
			z M232,232v-8v-8h16v8v8H232z M344,208c0,4.408-3.584,8-8,8h-72v-8c0-4.416-3.576-8-8-8h-32c-4.424,0-8,3.584-8,8v8h-72
			c-4.416,0-8-3.592-8-8v-24h72h64h72V208z"/>
	</g>
</g>
<g>
</g>
<g>
</g>
<g>
</g>
<g>
</g>
<g>
</g>
<g>
</g>
<g>
</g>
<g>
</g>
<g>
</g>
<g>
</g>
<g>
</g>
<g>
</g>
<g>
</g>
<g>
</g>
<g>
</g>
</svg>
