<?xml version="1.0" encoding="iso-8859-1"?>
<!-- Generator: Adobe Illustrator 19.0.0, SVG Export Plug-In . SVG Version: 6.00 Build 0)  -->
<svg version="1.1" id="Capa_1" xmlns="http://www.w3.org/2000/svg" xmlns:xlink="http://www.w3.org/1999/xlink" x="0px" y="0px" viewBox="0 0 480 480" xml:space="preserve">
<g>
	<g>
		<polygon points="200,344 200,264 184,264 184,344 168,344 168,288 152,288 152,344 136,344 136,272 120,272 120,344 104,344 
			104,296 88,296 88,344 72,344 72,360 216,360 216,344 		"/>
	</g>
</g>
<g>
	<g>
		<path d="M403.568,329.344l-16.464,10.976l-19.944-39.896c-1.32-2.64-3.984-4.336-6.936-4.416
			c-3.056-0.152-5.704,1.464-7.168,4.024l-27.504,48.136L300.8,329.6c-3.536-2.664-8.544-1.928-11.2,1.6l-24,32l12.8,9.6l19.2-25.6
			l25.6,19.2c1.84,1.384,4.168,1.896,6.424,1.44c2.248-0.472,4.184-1.872,5.328-3.864l24.584-43.016l17.312,34.632
			c1.024,2.048,2.888,3.568,5.104,4.152c2.224,0.576,4.568,0.184,6.488-1.088l24-16L403.568,329.344z"/>
	</g>
</g>
<g>
	<g>
		<path d="M471.024,427.712l-43.136-43.136C435.592,370.064,440,353.544,440,336c0-36.72-19.184-68.984-48-87.496V216
			c22.056,0,40-17.944,40-40V88c0-4.416-3.584-8-8-8H296V48c0-26.472-21.528-48-48-48h-64c-26.472,0-48,21.528-48,48v32H8
			c-4.416,0-8,3.584-8,8v88c0,22.056,17.944,40,40,40v144c0,30.88,25.12,56,56,56h173.64c18.024,14.976,41.152,24,66.36,24
			c17.544,0,34.064-4.408,48.576-12.112l43.136,43.136c5.792,5.792,13.48,8.976,21.656,8.976C466.264,480,480,466.264,480,449.368
			C480,441.192,476.816,433.496,471.024,427.712z M152,48c0-17.648,14.352-32,32-32h64c17.648,0,32,14.352,32,32v32h-16V48
			c0-8.824-7.176-16-16-16h-64c-8.824,0-16,7.176-16,16v32h-16V48z M248,48v32h-64V48H248z M40,200c-13.232,0-24-10.768-24-24V96
			h128h32h80h32h128v80c0,13.232-10.768,24-24,24h-8H248v-24c0-4.416-3.584-8-8-8h-48c-4.416,0-8,3.584-8,8v24H48H40z M232,184v24
			v24h-32v-24v-24H232z M96,400.008V400c-22.056,0-40-17.944-40-40V216h128v24c0,4.416,3.584,8,8,8h48c4.416,0,8-3.584,8-8v-24h128
			v24.024c-9.296-3.888-19.264-6.472-29.68-7.504c-3.424-0.344-6.872-0.52-10.32-0.52c-57.344,0-104,46.656-104,104
			c0,3.24,0.192,6.464,0.488,9.664c0.12,1.272,0.312,2.512,0.48,3.768c0.24,1.848,0.504,3.696,0.848,5.52
			c0.288,1.56,0.632,3.104,0.992,4.64c0.336,1.432,0.704,2.848,1.096,4.264c0.48,1.712,0.968,3.408,1.528,5.08
			c0.376,1.128,0.808,2.232,1.224,3.344c0.688,1.84,1.368,3.672,2.152,5.464c0.232,0.536,0.52,1.048,0.76,1.584
			c2.144,4.648,4.584,9.136,7.36,13.384c0.064,0.096,0.12,0.2,0.184,0.304c1.176,1.784,2.448,3.48,3.72,5.184
			c0.448,0.592,0.84,1.224,1.296,1.808H96z M382.064,410.84C368.648,419.128,352.896,424,336,424
			c-22.544,0-43.072-8.592-58.656-22.584c-1.96-1.76-3.84-3.592-5.616-5.504c-0.376-0.4-0.744-0.808-1.104-1.216
			c-1.688-1.872-3.28-3.816-4.792-5.808c-0.336-0.448-0.68-0.896-1.008-1.344c-1.488-2.056-2.88-4.168-4.184-6.336
			c-0.256-0.424-0.528-0.848-0.776-1.28c-1.312-2.264-2.512-4.6-3.616-6.968c-0.176-0.376-0.368-0.736-0.536-1.104
			c-1.112-2.48-2.088-5.008-2.968-7.584c-0.104-0.312-0.24-0.616-0.344-0.928c-0.856-2.608-1.568-5.272-2.184-7.96
			c-0.072-0.312-0.176-0.616-0.24-0.936c-0.576-2.648-0.984-5.336-1.304-8.04c-0.048-0.376-0.128-0.744-0.168-1.12
			C248.168,342.216,248,339.112,248,336c0-48.52,39.48-88,88-88c3.56,0,7.104,0.272,10.624,0.704c0.8,0.096,1.584,0.248,2.376,0.36
			c2.912,0.44,5.8,1.008,8.656,1.736c0.6,0.152,1.2,0.296,1.8,0.464c7.048,1.968,13.872,4.792,20.28,8.472
			C406.144,274.952,424,303.4,424,336c0,16.896-4.872,32.648-13.16,46.064C403.648,393.712,393.712,403.648,382.064,410.84z
			 M449.368,464c-3.904,0-7.576-1.52-10.344-4.288l-40.64-40.648c0.168-0.128,0.304-0.288,0.472-0.416
			c7.456-5.688,14.112-12.336,19.8-19.8c0.128-0.168,0.288-0.304,0.416-0.472l40.648,40.64c2.76,2.776,4.28,6.448,4.28,10.352
			C464,457.44,457.44,464,449.368,464z"/>
	</g>
</g>
<g>
</g>
<g>
</g>
<g>
</g>
<g>
</g>
<g>
</g>
<g>
</g>
<g>
</g>
<g>
</g>
<g>
</g>
<g>
</g>
<g>
</g>
<g>
</g>
<g>
</g>
<g>
</g>
<g>
</g>
</svg>
