<?xml version="1.0" encoding="iso-8859-1"?>
<!-- Generator: Adobe Illustrator 19.0.0, SVG Export Plug-In . SVG Version: 6.00 Build 0)  -->
<svg version="1.1" id="Capa_1" xmlns="http://www.w3.org/2000/svg" xmlns:xlink="http://www.w3.org/1999/xlink" x="0px" y="0px" viewBox="0 0 428.473 428.473" xml:space="preserve">
<g>
	<g>
		<path d="M423.353,209.12h-62.64c-2.8-76.881-64.479-138.56-141.36-141.36V5.12c0-2.828-2.292-5.12-5.12-5.12
			s-5.12,2.292-5.12,5.12v62.64c-76.881,2.8-138.56,64.479-141.36,141.36H5.113c-2.828,0.004-5.117,2.299-5.113,5.127
			c0.004,2.822,2.291,5.109,5.113,5.113h62.64c2.8,76.881,64.479,138.56,141.36,141.36v62.64c0.004,2.828,2.299,5.117,5.127,5.113
			c2.822-0.004,5.109-2.291,5.113-5.113v-62.64c76.881-2.8,138.56-64.479,141.36-141.36h62.64c2.828,0,5.12-2.292,5.12-5.12
			S426.181,209.12,423.353,209.12z M209.113,78.24v48c-44.682,2.532-80.348,38.198-82.88,82.88h-48
			C81.131,138.072,138.065,81.139,209.113,78.24z M209.113,350.24c-71.048-2.898-127.981-59.832-130.88-130.88h48
			c2.532,44.682,38.198,80.348,82.88,82.88V350.24z M209.113,291.84c-38.903-2.598-69.882-33.577-72.48-72.48h72.48V291.84z
			 M209.113,209.12h-72.4c2.598-38.903,33.577-69.882,72.48-72.48L209.113,209.12z M219.353,136.72
			c38.903,2.598,69.882,33.577,72.48,72.48l-72.48-0.08V136.72z M219.353,219.36h72.48c-2.598,38.903-33.577,69.882-72.48,72.48
			V219.36z M219.353,350.24v-48c44.682-2.532,80.348-38.198,82.88-82.88h48C347.335,290.408,290.401,347.341,219.353,350.24z
			 M302.233,209.12c-2.532-44.682-38.198-80.348-82.88-82.88v-48c71.048,2.898,127.982,59.832,130.88,130.88H302.233z"/>
	</g>
</g>
<g>
</g>
<g>
</g>
<g>
</g>
<g>
</g>
<g>
</g>
<g>
</g>
<g>
</g>
<g>
</g>
<g>
</g>
<g>
</g>
<g>
</g>
<g>
</g>
<g>
</g>
<g>
</g>
<g>
</g>
</svg>
