<svg xmlns="http://www.w3.org/2000/svg" viewBox="0 0 236.958 36">
    <defs>
        <style>
            .cls-1{fill:#007dac}.cls-2{fill:#00a3e1}.cls-3{fill:#0b2e4e}
        </style>
    </defs>
    <path d="M562.478 387.369l-24.44 5.671 7.277-5.671-29.815-14.132z" class="cls-1" transform="translate(-325.52 -373.237)"/>
    <path d="M562.478 387.369h-17.163L515.5 373.238z" class="cls-2" transform="translate(-325.52 -373.237)"/>
    <path d="M395.622 405.67l-.032-22.17h-2.678l-9.4 15.584-9.534-15.584H371.3v22.17h3.134v-16.06l8.26 13.367h1.5l8.26-13.461.032 16.153zm24.717 0h3.423l-10.38-22.17h-3.232l-10.35 22.17h3.358l2.518-5.543h12.144zm-13.52-8.077l4.929-10.864 4.93 10.864zm39.963 8.077l-5.42-7.444a7.011 7.011 0 0 0 5.027-7c0-4.815-3.591-7.728-9.532-7.728h-8.917v22.172h3.264v-6.747h5.648c.49 0 .98-.032 1.437-.063l4.929 6.81zm-10.028-9.439h-5.55v-9.978h5.55c4.179 0 6.366 1.811 6.366 4.978s-2.186 4.999-6.365 4.999zm31.895 9.439h3.825l-10.386-12.194 9.76-9.978h-3.721l-12.405 12.385V383.5h-3.265v22.17h3.265v-5.733l4.179-4.117zm11.327-2.755v-7.158h11.458v-2.694h-11.457v-6.81h12.863V383.5h-16.127v22.17H493.3v-2.755zm23.93 2.755h3.232v-19.417h7.834V383.5h-18.9v2.755h7.835zm15.408 0h3.265V383.5h-3.265zm27.293-22.17v16.534L532.9 383.5h-2.677v22.17h3.264v-16.535l13.711 16.534h2.677V383.5zm26.736 18.181a9.89 9.89 0 0 1-5.354 1.425c-5.256 0-9.076-3.642-9.076-8.52 0-4.941 3.825-8.519 9.108-8.519a9.208 9.208 0 0 1 6.622 2.565l2.029-1.964a11.645 11.645 0 0 0-8.782-3.42c-7.085 0-12.242 4.783-12.242 11.339s5.157 11.34 12.177 11.34a13.775 13.775 0 0 0 8.651-2.82v-8.647h-3.134z" class="cls-3" transform="translate(-371.301 -369.926)"/>
</svg>
