<svg xmlns="http://www.w3.org/2000/svg" viewBox="0 0 167.352 36">
    <defs>
        <style>
            .cls-1{fill:#ff5700}.cls-2{fill:#ff9100}.cls-3{fill:#0b2e4e}
        </style>
    </defs>
    <path d="M516.478 482.138L492.5 487.7l7.139-5.563-29.249-13.863z" class="cls-1" transform="translate(-349.127 -468.274)"/>
    <path d="M516.478 482.138h-16.836l-29.252-13.863z" class="cls-2" transform="translate(-349.127 -468.274)"/>
    <path d="M378.578 500.531c5.748 0 8.421-2.859 8.421-6.184 0-7.985-13.175-4.66-13.175-9.974 0-1.9 1.585-3.449 5.283-3.449a11.24 11.24 0 0 1 5.965 1.77l1.026-2.484a12.783 12.783 0 0 0-6.991-1.927c-5.718 0-8.328 2.858-8.328 6.215 0 8.079 13.175 4.722 13.175 10.036 0 1.9-1.617 3.356-5.375 3.356a11.19 11.19 0 0 1-7.178-2.518l-1.15 2.424c1.74 1.616 5.002 2.735 8.327 2.735zm16.81-2.953v-7.022h10.907v-2.641h-10.907v-6.68h12.243v-2.7h-15.35v21.751h15.785v-2.7zm36.387 2.7l-5.157-7.3a6.864 6.864 0 0 0 4.785-6.867c0-4.723-3.419-7.582-9.074-7.582h-8.482v21.751h3.108v-6.619h5.379c.466 0 .932-.032 1.368-.063l4.687 6.682zm-9.539-9.26h-5.282v-9.789h5.282c3.976 0 6.058 1.775 6.058 4.883s-2.082 4.911-6.058 4.911zm30.731-12.492l-7.893 17.874-7.825-17.867h-3.357l9.57 21.751h3.073l9.539-21.751zm6.619 21.751h3.107v-21.746h-3.107zm20.1.249a10.792 10.792 0 0 0 8.3-3.419l-2.02-1.954a8.083 8.083 0 0 1-6.125 2.611 8.215 8.215 0 0 1-8.539-7.878 8.537 8.537 0 0 1-.006-.48 8.216 8.216 0 0 1 8.065-8.364h.48a8.055 8.055 0 0 1 6.125 2.579l2.02-1.957a10.747 10.747 0 0 0-8.265-3.387c-6.618 0-11.529 4.692-11.529 11.124s4.908 11.13 11.497 11.13zm16.6-2.953v-7.022h10.9v-2.641h-10.9v-6.68h12.243v-2.7H493.18v21.751h15.785v-2.7z" class="cls-3" transform="translate(-370.251 -464.539)"/>
</svg>
