<?xml version="1.0" encoding="utf-8"?>
<!-- Generator: Adobe Illustrator 24.1.3, SVG Export Plug-In . SVG Version: 6.00 Build 0)  -->
<svg version="1.1" id="Layer_1" xmlns="http://www.w3.org/2000/svg" xmlns:xlink="http://www.w3.org/1999/xlink" x="0px" y="0px"
	 viewBox="0 0 290.6 107.9" style="enable-background:new 0 0 290.6 107.9;" xml:space="preserve">
<style type="text/css">
	.st0{fill:#6A7E96;}
	.st1{fill:#FFFFFF;}
</style>
<g>
	<path class="st0" d="M278.1,107.2H11.8c-5.7,0-10.3-4.7-10.3-10.5V22.5C1.4,16.7,6.1,12,11.8,12h84.3c0.9,0,1.5,0.7,1.5,1.5
		s-0.7,1.5-1.5,1.5H11.8c-4,0-7.3,3.3-7.3,7.4v74.2c0,4.1,3.3,7.4,7.3,7.4h266.3c4,0,7.3-3.3,7.3-7.4V22.5c0-4.1-3.3-7.4-7.3-7.4
		c-0.9,0-1.5-0.7-1.5-1.5s0.7-1.5,1.5-1.5c5.7,0,10.3,4.7,10.3,10.5v74.2C288.4,102.5,283.8,107.2,278.1,107.2z"/>
</g>
<g>
	<g>
		<path class="st0" d="M104.3,28.8h-3.7l4.1-20.9h3.4L107.9,9c-0.1,0.6-0.3,1.1-0.3,1.1h0.1c1.1-1.4,2.8-2.5,4.9-2.5
			c3.6,0,5.7,2.5,5.7,6.3c0,5.6-4.1,9.4-8.2,9.4c-1.8,0-3.4-0.7-4.3-2.2h-0.1c0,0-0.1,0.6-0.2,1.4L104.3,28.8z M109.6,20.1
			c2.2,0,4.8-2.2,4.8-6c0-2.1-1.1-3.4-3-3.4c-2.5,0-4.8,2.7-4.8,6C106.7,18.6,107.6,20.1,109.6,20.1z"/>
	</g>
	<g>
		<path class="st0" d="M130.3,7.6c4.3,0,7.4,2.7,7.4,6.6c0,5.3-4.7,9.1-9.3,9.1c-4.3,0-7.4-2.7-7.4-6.7
			C121,11.4,125.6,7.6,130.3,7.6z M128.4,20.1c2.7,0,5.4-2.4,5.4-5.7c0-2.2-1.5-3.7-3.7-3.7c-2.7,0-5.4,2.4-5.4,5.7
			C124.8,18.7,126.3,20.1,128.4,20.1z"/>
	</g>
	<g>
		<path class="st0" d="M140.9,7.9h3.7l0.7,9.9c0.1,0.8,0,1.6,0,1.6h0.1c0,0,0.3-0.8,0.6-1.6l4.7-9.9h3.3l0.8,9.9
			c0.1,0.6,0,1.6,0,1.6h0.1c0,0,0.2-0.8,0.6-1.6l4.6-9.9h4l-7.5,15h-4.1l-0.9-8.6c-0.1-0.8-0.1-1.6-0.1-1.6h-0.1
			c0,0-0.3,0.8-0.7,1.6l-4.2,8.6h-4L140.9,7.9z"/>
	</g>
	<g>
		<path class="st0" d="M173.3,7.6c4,0,6,2.4,6,5.7c0,1-0.2,1.9-0.5,2.9h-10.4c0,0.2-0.1,0.5-0.1,0.7c0,1.6,1.3,3.3,3.7,3.3
			c1.6,0,3.3-0.7,4.7-1.6l1,2.9c-1.1,0.9-3.6,2-5.9,2c-4.7,0-7.3-2.8-7.3-6.5C164.6,11.8,168.3,7.6,173.3,7.6z M175.6,13.6
			c0.1-0.2,0.1-0.4,0.1-0.6c0-1.6-1-2.5-2.4-2.5c-1.9,0-3.5,1.2-4.3,3.2H175.6z"/>
	</g>
	<g>
		<path class="st0" d="M184.3,7.9h3.6l-0.5,2.6c-0.1,0.6-0.3,1.1-0.3,1.1h0.1c1-2.1,3.1-3.9,5.3-3.9c0.3,0,0.6,0,0.9,0.1l-0.7,3.7
			c-0.3,0-0.6-0.1-0.9-0.1c-2.3,0-4.9,2.5-5.6,6.2l-1,5.3h-3.7L184.3,7.9z"/>
	</g>
	<g>
		<path class="st0" d="M202.8,7.6c4,0,6,2.4,6,5.7c0,1-0.2,1.9-0.5,2.9h-10.4c0,0.2-0.1,0.5-0.1,0.7c0,1.6,1.3,3.3,3.7,3.3
			c1.6,0,3.3-0.7,4.7-1.6l1,2.9c-1.1,0.9-3.6,2-5.9,2c-4.7,0-7.3-2.8-7.3-6.5C194.1,11.8,197.8,7.6,202.8,7.6z M205,13.6
			c0.1-0.2,0.1-0.4,0.1-0.6c0-1.6-1-2.5-2.4-2.5c-1.9,0-3.5,1.2-4.3,3.2H205z"/>
	</g>
	<g>
		<path class="st0" d="M219.7,7.6c1.6,0,3.4,0.6,4.2,2.1h0.1c0,0,0-0.5,0.1-0.9l1.3-6.7h3.7L225,22.9h-3.5l0.2-1.2
			c0.1-0.6,0.3-1,0.3-1h-0.1c-1,1.5-2.8,2.6-4.8,2.6c-3.7,0-5.7-2.4-5.7-6.3C211.3,11.4,215.3,7.6,219.7,7.6z M218.1,20.1
			c2.5,0,4.8-2.8,4.8-6c0-1.8-0.9-3.4-3-3.4c-2.2,0-4.8,2.2-4.8,6C215.1,18.9,216.3,20.1,218.1,20.1z"/>
	</g>
	<g>
		<path class="st0" d="M241.9,2h3.7l-1.2,6.4c-0.1,0.7-0.4,1.4-0.4,1.4h0.1c1-1.3,2.8-2.2,4.6-2.2c3.6,0,5.7,2.5,5.7,6.3
			c0,5.6-4.1,9.4-8.2,9.4c-1.8,0-3.6-0.8-4.4-2.4h-0.1c0,0,0,0.5-0.1,1.1l-0.2,1h-3.5L241.9,2z M245.7,20.1c2.2,0,4.8-2.2,4.8-6
			c0-2.1-1.1-3.4-3-3.4c-2.5,0-4.8,2.7-4.8,6C242.8,18.6,243.7,20.1,245.7,20.1z"/>
	</g>
	<g>
		<path class="st0" d="M256.7,26c1.1,0,2.2-0.6,3-1.9l0.8-1.4l-3.4-14.8h3.9l1.7,9.1c0.1,0.8,0.2,1.9,0.2,1.9h0.1
			c0,0,0.5-1.1,0.9-1.9l4.7-9.2h4.2l-10.1,17.3c-1.6,2.7-3.8,3.9-5.7,3.9c-1.2,0-2.4-0.4-3.4-1.1l1.7-2.6
			C255.5,25.8,256.2,26,256.7,26z"/>
	</g>
</g>
<g>
	<g>
		<g>
			<path class="st0" d="M97.7,40.2h24.6v6.4h-18.5v10.7h15v6.4h-15v11h19.5v6.4H97.8c-1.1,0-2-0.9-2-2v-37
				C95.8,41,96.6,40.2,97.7,40.2z"/>
		</g>
		<g>
			<path class="st0" d="M137.9,66.1l-9.5-13.1c-0.5-0.7,0-1.6,0.8-1.6h7.4l5.1,8.1c0.5,0.8,1,1.9,1,1.9h0.1c0,0,0.6-1.1,1.1-1.9
				l5.1-8.1h7.4c0.8,0,1.2,0.9,0.8,1.5l-9.5,13.1l9.8,13.4c0.5,0.7,0,1.6-0.8,1.6h-7.2l-5.7-8.6c-0.5-0.6-1-1.6-1-1.6h-0.1
				c0,0-0.5,0.9-0.9,1.6l-5.7,8.6h-6.6c-1.1,0-1.7-1.2-1.1-2.1L137.9,66.1z"/>
		</g>
		<g>
			<path class="st0" d="M162.7,52.6c0-0.6,0.5-1.2,1.2-1.2h5.8v2.2c0,1.1-0.1,2.1-0.1,2.1h0.1c2-3.2,5.7-5,9.9-5
				c8.3,0,13.6,6.3,13.6,15.6c0,9.4-6,15.6-14,15.6c-3.5,0-6.7-1.5-8.9-4.2h-0.1c0,0,0.2,1,0.2,2.6v11.4c0,0.6-0.5,1.2-1.2,1.2h-5.3
				c-0.6,0-1.2-0.5-1.2-1.2V52.6z M177.7,75.6c4.2,0,7.7-3.3,7.7-9.2c0-5.7-3.1-9.3-7.6-9.3c-4,0-7.8,2.8-7.8,9.4
				C170.1,71.1,172.7,75.6,177.7,75.6z"/>
		</g>
		<g>
			<path class="st0" d="M213.9,50.8c8.8,0,13.6,6.2,13.6,14.1c0,0.1,0,0.3,0,0.5c-0.1,1.3-1.2,2.4-2.5,2.4h-18.9
				c0.5,5.2,4.6,7.9,9.2,7.9c3.1,0,6.3-1.3,8.8-3.3l3,5.3c-3.1,2.7-8,4.3-12.4,4.3c-10.2,0-16.6-7.1-16.6-15.6
				C198.2,57.2,204.7,50.8,213.9,50.8z M219.9,62.6c-0.1-4-2.7-6.3-6.1-6.3c-3.9,0-6.7,2.5-7.4,6.3H219.9z"/>
		</g>
		<g>
			<path class="st0" d="M232.9,51.5c1,0,4.3,0,5.2,0c0.9,0,1,0.5,1,1.2c0,0.8,0,4.1,0,4.1c0,1.1-0.1,2-0.1,2h0.1
				c1.4-4.2,5.1-7.7,9.8-7.7c0.5,0,1,0.1,1.4,0.1v7.3c-0.3-0.1-1.2-0.1-1.9-0.1c-6.3,0-9,5.2-9,10.8v10.9c0,0.6-0.5,1.1-1.1,1.1
				h-5.5c-0.6,0-1.1-0.5-1.1-1.1V52.6C231.8,52,232,51.5,232.9,51.5z"/>
		</g>
		<g>
			<path class="st0" d="M258.7,57.8h-4v-5.9h4.2c0,0,0-7,0-7.6s0.5-0.9,1-0.9s5,0,5.5,0s1,0.4,1,1s0,7.5,0,7.5h7v5.9h-7v11.6
				c0,4.9,4,5.6,6.1,5.6c0.4,0,0.8,0,1.4-0.1v5.4c0,0.6-0.5,1.1-1.1,1.2c-0.4,0-0.8,0.1-1.3,0.1c-4.3,0-12.8-1.2-12.8-11.2V57.8z"/>
		</g>
	</g>
	<g>
		<g>
			<path class="st0" d="M77.5,26.4H23.3c-3.9,0-7.1,3.2-7.1,7.2v54c0,4,3.2,7.2,7.1,7.2h54.2c3.9,0,7.1-3.2,7.1-7.2v-54
				C84.6,29.6,81.4,26.4,77.5,26.4z"/>
		</g>
	</g>
	<g>
		<rect x="27.3" y="40.1" class="st1" width="8" height="40.7"/>
	</g>
	<g>
		<polygon class="st1" points="76.7,47.2 63.9,47.2 63.9,80.8 55.9,80.8 55.9,47.2 43.3,47.2 43.3,40.1 76.7,40.1 		"/>
	</g>
</g>
</svg>
