<?xml version="1.0" encoding="utf-8"?>
<!-- Generator: Adobe Illustrator 24.1.3, SVG Export Plug-In . SVG Version: 6.00 Build 0)  -->
<svg version="1.1" id="Layer_1" xmlns="http://www.w3.org/2000/svg" xmlns:xlink="http://www.w3.org/1999/xlink" x="0px" y="0px"
	 viewBox="0 0 323.5 160" style="enable-background:new 0 0 323.5 160;" xml:space="preserve">
<style type="text/css">
	.st0{fill:#D1F257;}
	.st1{fill:url(#SVGID_1_);}
	.st2{fill:#6A7E96;}
	.st3{fill:none;stroke:#ED3028;stroke-width:5.0422;stroke-linecap:round;stroke-linejoin:round;stroke-miterlimit:10;}
	.st4{fill:#FFFFFF;}
</style>
<g>
	<g>
		<path class="st0" d="M44.6,31.1l-6.4-18.7C37,9,33,7.6,30,9.4C19.4,15.8,10.8,25.5,6,37.3c-1.4,3.3,0.6,7.1,4.2,7.7l19.3,3.5
			c2.3,0.4,4.7-0.6,5.8-2.7c0.9-1.6,1.9-3,3.1-4.5c1.3-1.6,2.8-3,4.4-4.2C44.5,35.8,45.4,33.3,44.6,31.1z"/>
		<path class="st0" d="M93.6,60.3l19.3,3.5c3.5,0.6,6.8-2.1,6.6-5.7c-0.4-12.7-4.9-24.6-12.3-34.2c-2.2-2.8-6.5-2.9-8.8-0.2
			L85.9,38.5c-1.6,1.8-1.9,4.5-0.6,6.6c2,3.3,3.2,6.9,3.8,10.6C89.4,58,91.2,59.8,93.6,60.3z"/>
		<path class="st0" d="M26.8,59.1L7.5,55.6c-3.5-0.6-6.8,2.1-6.6,5.7C1.3,74,5.8,85.9,13.2,95.5c2.2,2.8,6.5,2.9,8.8,0.2l12.5-14.9
			c1.6-1.8,1.9-4.5,0.6-6.6c-2-3.3-3.2-6.9-3.8-10.6C31,61.3,29.1,59.5,26.8,59.1z"/>
		<path class="st0" d="M77.2,31.4l12.6-15c2.3-2.7,1.5-6.9-1.7-8.6c-5.7-3-12-5.2-18.7-6.2C64,0.8,58.7,0.7,53.5,1.3
			c-3.6,0.4-5.8,4-4.7,7.4l6.4,18.6c0.8,2.3,3,3.7,5.4,3.7c3.4,0,6.8,0.6,10.1,1.9C73,33.8,75.6,33.3,77.2,31.4z"/>
		<path class="st0" d="M43.2,88l-12.6,15c-2.3,2.7-1.5,6.9,1.7,8.6c5.7,3,12,5.1,18.7,6.2c5.4,0.8,10.7,0.9,15.9,0.3
			c3.6-0.4,5.8-4,4.7-7.4L65.1,92c-0.8-2.3-3-3.7-5.4-3.7c-3.4,0-6.8-0.6-10.1-1.9C47.4,85.5,44.8,86.1,43.2,88z"/>
	</g>
	<linearGradient id="SVGID_1_" gradientUnits="userSpaceOnUse" x1="43.9572" y1="93.9268" x2="217.3439" y2="93.9268">
		<stop  offset="0" style="stop-color:#C9CDD7"/>
		<stop  offset="0.8262" style="stop-color:#6A7E96"/>
		<stop  offset="0.9171" style="stop-color:#6A7E96"/>
	</linearGradient>
	<path class="st1" d="M165.7,145.5H95.6c-28.5,0-51.6-23.1-51.6-51.6v0c0-28.5,23.1-51.6,51.6-51.6h70.2c28.5,0,51.6,23.1,51.6,51.6
		v0C217.3,122.4,194.2,145.5,165.7,145.5z"/>
	<path class="st2" d="M89,55.8c0.3,2.3,2.2,4.1,4.5,4.5l19.3,3.5c3.5,0.6,6.8-2.1,6.6-5.7c-0.2-5.4-1.1-10.7-2.7-15.7H95.6
		c-3.8,0-7.4,0.4-10.9,1.2c0.1,0.6,0.3,1.1,0.6,1.6C87.2,48.5,88.5,52.1,89,55.8z"/>
	<path class="st2" d="M66.9,118.1c3.6-0.4,5.8-4,4.7-7.4l-6.4-18.6c-0.8-2.3-3-3.7-5.4-3.7c-3.4,0-6.8-0.6-10.1-1.9
		c-1.8-0.7-3.7-0.5-5.2,0.5c-0.3,2.3-0.5,4.7-0.5,7l0,0c0,8.5,2.1,16.5,5.7,23.6c0.4,0.1,0.9,0.2,1.3,0.3
		C56.4,118.6,61.7,118.7,66.9,118.1z"/>
	<path class="st3" d="M43.3,134.8c10.6,13.7,28.5,22.7,48.7,22.7h77.3c20.3,0,38.2-9,48.7-22.7"/>
	<g>
		<path class="st2" d="M110.5,74.5L91.3,71c-2.3-0.4-4.7,0.6-5.8,2.7c-0.9,1.6-1.9,3-3.1,4.5c-1.3,1.6-2.8,3-4.4,4.2
			c-1.9,1.4-2.7,3.9-1.9,6.1l6.4,18.7c1.2,3.4,5.2,4.8,8.2,3c10.6-6.4,19.1-16.1,24-27.9C116.1,78.9,114.1,75.1,110.5,74.5z"/>
	</g>
	<g>
		<g>
			<path class="st4" d="M97.9,122c-16.6,0-27-9.9-27-26.4v-3.2c0-15.7,10.9-27,26.3-27c5.7,0,10.8,0.8,13.3,1.9v10.6
				c-2.2-0.9-5-2.1-10.2-2.1c-7.2,0-12.4,4.1-12.4,17.1v2.5c0,13.7,5.1,16.8,12,16.8c4.8,0,8.2-1.2,10.6-2.2v9.6
				C108.8,120.6,102.7,122,97.9,122z"/>
			<path class="st4" d="M144.4,100.4h-7.3v20.7H121V66.2h24c12.7,0,16.8,7.1,16.8,13.6v7.3C161.9,96.1,155.8,100.4,144.4,100.4z
				 M145.4,81.3c0-3.8-2.2-5.2-5.4-5.2h-3.1v15.3h3.7c2.5,0,4.8-1.3,4.8-4.9V81.3z"/>
			<path class="st4" d="M173.4,121.1V66.2h16.1v54.9H173.4z"/>
		</g>
	</g>
	<g>
		<g>
			<path class="st2" d="M229.2,98V66.5h11.6c3.2,0,5.8,0.7,7.8,2.1c2,1.4,2.9,3.5,2.9,6.1c0,1.4-0.3,2.6-1,3.9
				c-0.6,1.2-1.5,2.2-2.7,2.8v0.1c1.7,0.5,2.9,1.4,3.7,2.8c0.8,1.3,1.2,2.8,1.2,4.3c0,3.2-1.1,5.6-3.4,7.1c-2.3,1.5-5.1,2.3-8.6,2.3
				H229.2z M236.9,78.7h4c0.9,0,1.6-0.3,2.1-0.8c0.5-0.6,0.7-1.2,0.7-2.1c0-0.8-0.2-1.4-0.7-1.9c-0.5-0.5-1.2-0.7-2.2-0.7h-3.8V78.7
				z M236.9,91.4h4.6c1.1,0,1.9-0.3,2.5-0.9c0.6-0.6,0.9-1.4,0.9-2.4s-0.3-1.7-0.8-2.3c-0.6-0.6-1.4-0.9-2.5-0.9h-4.7V91.4z"/>
			<path class="st2" d="M258.2,82c0-4.6,1.5-8.4,4.6-11.5c3.1-3.1,7-4.6,11.8-4.6c4.8,0,8.8,1.5,11.8,4.6c3.1,3.1,4.6,6.9,4.6,11.5
				c0,4.7-1.5,8.6-4.6,11.8c-3.1,3.1-7,4.7-11.8,4.7c-4.8,0-8.8-1.6-11.8-4.7C259.8,90.6,258.2,86.7,258.2,82z M266.2,82
				c0,2.7,0.8,4.9,2.4,6.7c1.6,1.8,3.6,2.7,6.1,2.7c2.5,0,4.5-0.9,6.1-2.7c1.6-1.8,2.4-4,2.4-6.7c0-2.6-0.8-4.7-2.4-6.4
				c-1.6-1.7-3.6-2.6-6.1-2.6c-2.5,0-4.5,0.9-6.1,2.6C267,77.3,266.2,79.4,266.2,82z"/>
			<path class="st2" d="M293.8,98l9.6-15.6l-9.6-15.9h8.8L306,73l1.9,4.1h0.1c0.6-1.4,1.2-2.7,1.9-4.1l3.5-6.5h8.8l-9.6,15.9
				l9.6,15.6h-8.6l-3.6-6.6l-1.9-3.9h-0.1c-0.6,1.3-1.2,2.6-1.9,3.9l-3.6,6.6H293.8z"/>
		</g>
		<g>
			<g>
				<path class="st2" d="M228.5,113.4c0-2.2,0.7-4,2.2-5.5c1.5-1.5,3.4-2.3,5.8-2.3c1.1,0,2.1,0.2,3.1,0.6c1,0.4,1.9,0.9,2.6,1.7
					l-1.7,2.5c-1.1-1.1-2.4-1.6-3.8-1.6c-1.3,0-2.4,0.4-3.3,1.3c-0.8,0.9-1.3,2-1.3,3.3c0,1.3,0.4,2.4,1.3,3.3
					c0.9,0.9,2,1.4,3.4,1.4c1.6,0,3.1-0.6,4.4-1.9l1.4,2.6c-0.7,0.7-1.6,1.3-2.7,1.8c-1.1,0.4-2.2,0.7-3.4,0.7
					c-2.4,0-4.4-0.7-5.8-2.2C229.3,117.4,228.5,115.6,228.5,113.4z"/>
				<path class="st2" d="M245.4,120.8v-14.9h3.6v2.6l-0.1,1h0.1c0.3-1.1,1-2,1.8-2.7c0.9-0.7,1.8-1.1,2.9-1.1c0.2,0,0.4,0,0.7,0.1
					v3.6c-0.2,0-0.5-0.1-0.9-0.1c-1.4,0-2.5,0.5-3.3,1.6c-0.7,1-1.1,2.3-1.1,3.8v6H245.4z"/>
				<path class="st2" d="M255.7,113.4c0-2.3,0.7-4.2,2.1-5.6c1.4-1.4,3.2-2.2,5.5-2.2c2.1,0,3.7,0.7,4.8,2c1.2,1.3,1.7,3,1.7,5.1
					c0,0.3,0,0.8-0.1,1.4h-10.2c0.1,1.2,0.6,2.2,1.4,2.9c0.8,0.7,1.8,1,3,1c1.5,0,2.9-0.5,4.3-1.6l1.5,2.7c-0.7,0.7-1.6,1.2-2.7,1.6
					c-1.1,0.4-2.2,0.6-3.2,0.6c-2.4,0-4.3-0.8-5.8-2.3C256.5,117.4,255.7,115.5,255.7,113.4z M259.7,111.5h6.6c0-1-0.3-1.7-0.9-2.3
					c-0.6-0.6-1.3-0.8-2.1-0.8c-0.9,0-1.7,0.3-2.4,0.9C260.2,109.8,259.8,110.6,259.7,111.5z"/>
				<path class="st2" d="M271.9,116.7c0-1,0.3-1.9,0.9-2.7c0.6-0.7,1.3-1.3,2.3-1.6c0.9-0.3,1.9-0.6,2.7-0.7
					c0.9-0.1,1.8-0.2,2.8-0.2h0.6v-0.2c0-1.7-0.9-2.6-2.8-2.6c-1.4,0-2.7,0.5-4.1,1.4l-1.4-2.7c0.6-0.5,1.5-0.9,2.6-1.3
					c1.1-0.4,2.2-0.5,3.2-0.5c1.9,0,3.5,0.5,4.5,1.6c1.1,1,1.6,2.5,1.6,4.4v9.3h-3.4v-1.3l0.1-1.1h-0.1c-0.5,0.8-1.1,1.4-2,1.9
					c-0.8,0.5-1.7,0.7-2.7,0.7c-1.4,0-2.5-0.4-3.5-1.2S271.9,118,271.9,116.7z M275.5,116.4c0,0.5,0.2,1,0.6,1.4
					c0.4,0.4,0.9,0.6,1.6,0.6c1,0,1.8-0.4,2.4-1.2c0.6-0.8,1-1.7,1-2.7V114h-0.6C277.2,114,275.5,114.8,275.5,116.4z"/>
				<path class="st2" d="M289.4,115.3v-6.3h-1.9v-2.9h2v-4.3h3.6v4.3h3.4v2.9h-3.4v5.8c0,1.1,0.3,1.8,0.9,2.2c0.6,0.4,1.3,0.6,2,0.6
					c0.3,0,0.5,0,0.7-0.1v3.2c-0.6,0.1-1,0.1-1.1,0.1c-0.5,0-1,0-1.5-0.1c-0.5-0.1-1-0.2-1.6-0.5c-0.6-0.2-1.1-0.5-1.6-0.9
					c-0.4-0.4-0.8-0.9-1.1-1.6C289.5,117.1,289.4,116.3,289.4,115.3z"/>
				<path class="st2" d="M299.5,103.4v-3.3h3.7v3.3H299.5z M299.5,120.8v-14.9h3.7v14.9H299.5z"/>
				<path class="st2" d="M308.6,118.9c-1.6-1.5-2.4-3.3-2.4-5.6c0-2.3,0.8-4.1,2.4-5.6c1.6-1.5,3.5-2.2,5.8-2.2
					c2.3,0,4.2,0.7,5.8,2.2c1.6,1.5,2.4,3.3,2.4,5.6c0,2.3-0.8,4.1-2.4,5.6s-3.5,2.2-5.8,2.2C312.1,121.1,310.2,120.4,308.6,118.9z
					 M310,113.4c0,1.4,0.4,2.5,1.3,3.3c0.8,0.9,1.9,1.3,3.1,1.3c1.2,0,2.3-0.4,3.1-1.3c0.9-0.9,1.3-2,1.3-3.3c0-1.3-0.4-2.4-1.3-3.3
					c-0.9-0.9-1.9-1.3-3.1-1.3c-1.2,0-2.3,0.4-3.1,1.3C310.5,110.9,310,112,310,113.4z"/>
			</g>
		</g>
	</g>
</g>
</svg>
