<svg xmlns="http://www.w3.org/2000/svg" width="255.404" height="32" viewBox="0 0 255.404 32">
  <g id="logo_marketplace" transform="translate(-211.853 -314.529)">
    <path id="Subtraction_785" data-name="Subtraction 785" d="M10.1,20.146a10.069,10.069,0,0,1-5.647-1.72A10.141,10.141,0,0,1,1.725,15.7,10.051,10.051,0,0,1,2.958,2.95,10.118,10.118,0,0,1,6.169.792a10.107,10.107,0,0,1,9.578.929,10.14,10.14,0,0,1,2.728,2.721l.1.149h-3.2a7.6,7.6,0,1,0,.289,10.84h3c-.059.094-.12.187-.18.275A10.091,10.091,0,0,1,10.1,20.146Z" transform="translate(211.853 320.812)" fill="#ff4013"/>
    <path id="Subtraction_787" data-name="Subtraction 787" d="M7.862,15.723a7.825,7.825,0,0,1-4.4-1.343A7.884,7.884,0,0,1,.618,10.922a7.851,7.851,0,0,1,.725-7.455A7.884,7.884,0,0,1,4.8.618a7.851,7.851,0,0,1,7.455.725A7.884,7.884,0,0,1,15.105,4.8a7.851,7.851,0,0,1-.725,7.455,7.884,7.884,0,0,1-3.459,2.848A7.812,7.812,0,0,1,7.862,15.723ZM7.879,2.4a5.482,5.482,0,1,0,5.482,5.482A5.488,5.488,0,0,0,7.879,2.4Z" transform="translate(301.695 340.974) rotate(180)" fill="#ff4013"/>
    <path id="Path_6150" data-name="Path 6150" d="M24.965-114.023c0-4.751-3.177-7.957-7.636-7.957a7.565,7.565,0,0,0-7.753,7.869c0,4.6,3.323,7.9,8.306,7.9a7.753,7.753,0,0,0,6.091-2.506l-1.545-1.807a5.768,5.768,0,0,1-4.459,1.865c-3.06,0-5.246-1.807-5.6-4.517H24.906C24.935-113.441,24.965-113.79,24.965-114.023Zm-7.636-5.6a4.817,4.817,0,0,1,4.955,4.43H12.374A4.815,4.815,0,0,1,17.329-119.619Z" transform="translate(229.322 447.234)" fill="#ff4013" stroke="rgba(0,0,0,0)" stroke-width="1"/>
    <path id="Path_6149" data-name="Path 6149" d="M23.429-119.24v-2.594H20.748v15.447h2.8v-7.694c0-3.381,1.865-5.217,4.867-5.217a4.942,4.942,0,0,1,.641.029v-2.71C26.344-121.98,24.42-121.047,23.429-119.24Z" transform="translate(210.247 447.234)" fill="#ff4013"/>
    <path id="Path_6151" data-name="Path 6151" d="M24.017-139.27a2.524,2.524,0,0,1-1.8.727c-1.545,0-2.036-.93-2.036-2.587v-8.342h4.43v-2.3h-4.43v-4.519h-2.8v4.519H16.42v2.3h.961v8.459c0,3.11,1.394,4.825,4.513,4.825a4.263,4.263,0,0,0,3-1.075Z" transform="translate(256.205 477.192)" fill="#ff4013"/>
    <path id="Path_6152" data-name="Path 6152" d="M20.748-105.393h2.8V-120.84h-2.8Z" transform="translate(261.378 446.239)" fill="#ff4013"/>
    <g id="Group_5724" data-name="Group 5724" transform="translate(255.165 325.251)">
      <path id="Subtraction_664" data-name="Subtraction 664" d="M7.862,15.723a7.825,7.825,0,0,1-4.4-1.343A7.884,7.884,0,0,1,.618,10.922a7.851,7.851,0,0,1,.725-7.455A7.884,7.884,0,0,1,4.8.618a7.851,7.851,0,0,1,7.455.725A7.884,7.884,0,0,1,15.105,4.8a7.851,7.851,0,0,1-.725,7.455,7.884,7.884,0,0,1-3.459,2.848A7.812,7.812,0,0,1,7.862,15.723ZM7.879,2.4a5.482,5.482,0,1,0,5.482,5.482A5.488,5.488,0,0,0,7.879,2.4Z" transform="translate(15.723 15.723) rotate(180)" fill="#ff4013"/>
      <path id="Path_6029" data-name="Path 6029" d="M20.748-105.393h2.414V-120.84H20.748Z" transform="translate(-7.336 120.988)" fill="#ff4013"/>
    </g>
    <path id="Path_5977" data-name="Path 5977" d="M427.747,269.278l-10.827,2.513,3.224-2.513-13.209-6.261Z" transform="translate(-137.907 51.512)" fill="#0b2e4e"/>
    <path id="Path_5977-2" data-name="Path 5977" d="M427.747,269.278h-7.6l-13.209-6.261Z" transform="translate(-137.907 51.512)" fill="#004381"/>
    <g id="Group_5729" data-name="Group 5729" transform="translate(305.001 319.439)">
      <g id="Group_5725" data-name="Group 5725" transform="translate(23.465 5.794)">
        <path id="Subtraction_664-2" data-name="Subtraction 664" d="M7.862,15.723a7.825,7.825,0,0,1-4.4-1.343A7.884,7.884,0,0,1,.618,10.922a7.851,7.851,0,0,1,.725-7.455A7.884,7.884,0,0,1,4.8.618a7.851,7.851,0,0,1,7.455.725A7.884,7.884,0,0,1,15.105,4.8a7.851,7.851,0,0,1-.725,7.455,7.884,7.884,0,0,1-3.459,2.848A7.812,7.812,0,0,1,7.862,15.723ZM7.879,2.4a5.482,5.482,0,1,0,5.482,5.482A5.488,5.488,0,0,0,7.879,2.4Z" transform="translate(15.723 15.723) rotate(180)" fill="#0b2e4e"/>
        <path id="Path_6029-2" data-name="Path 6029" d="M20.748-105.393h2.414V-120.84H20.748Z" transform="translate(-7.336 120.988)" fill="#0b2e4e"/>
      </g>
      <g id="Group_5726" data-name="Group 5726" transform="translate(115.642 5.794)">
        <path id="Subtraction_664-3" data-name="Subtraction 664" d="M7.862,15.723a7.825,7.825,0,0,1-4.4-1.343A7.884,7.884,0,0,1,.618,10.922a7.851,7.851,0,0,1,.725-7.455A7.884,7.884,0,0,1,4.8.618a7.851,7.851,0,0,1,7.455.725A7.884,7.884,0,0,1,15.105,4.8a7.851,7.851,0,0,1-.725,7.455,7.884,7.884,0,0,1-3.459,2.848A7.812,7.812,0,0,1,7.862,15.723ZM7.879,2.4a5.482,5.482,0,1,0,5.482,5.482A5.488,5.488,0,0,0,7.879,2.4Z" transform="translate(15.723 15.723) rotate(180)" fill="#0b2e4e"/>
        <path id="Path_6029-3" data-name="Path 6029" d="M20.748-105.393h2.414V-120.84H20.748Z" transform="translate(-7.336 120.988)" fill="#0b2e4e"/>
      </g>
      <path id="Path_6153" data-name="Path 6153" d="M31.223-46.788l-.029-20.26H28.82l-8.336,14.24-8.451-14.24H9.66v20.26h2.779V-61.462l7.323,12.214h1.331l7.323-12.3.029,14.761Zm22.4-12.764v-2.576H50.962v15.34H53.74v-7.641c0-3.357,1.852-5.181,4.833-5.181a4.906,4.906,0,0,1,.637.029v-2.692C56.519-62.273,54.609-61.347,53.625-59.552Zm19.1,12.764h3.415l-7.091-9,6.454-6.339H72.148l-8.365,7.641V-68.264H61.005v21.476h2.779v-4.2l3.184-2.952ZM90.44-54.371c0-4.718-3.155-7.9-7.583-7.9a7.513,7.513,0,0,0-7.7,7.815c0,4.573,3.3,7.844,8.249,7.844A7.7,7.7,0,0,0,89.456-49.1L87.922-50.9a5.727,5.727,0,0,1-4.428,1.852c-3.039,0-5.21-1.794-5.557-4.486H90.382C90.411-53.792,90.44-54.14,90.44-54.371Zm-7.583-5.557a4.784,4.784,0,0,1,4.92,4.4H77.937A4.782,4.782,0,0,1,82.857-59.928Zm17.568,10.246a3.5,3.5,0,0,1-2.171.724,2.26,2.26,0,0,1-2.4-2.576v-8.307h4.4v-2.286h-4.4v-3.357H93.074v3.357h-2.6v2.286h2.6v8.422c0,3.1,1.766,4.8,4.862,4.8a5.241,5.241,0,0,0,3.357-1.071Zm10.738-12.59a6.533,6.533,0,0,0-5.47,2.576v-2.431H103.03v20.955h2.779V-49.1a6.551,6.551,0,0,0,5.354,2.489,7.453,7.453,0,0,0,7.757-7.844A7.445,7.445,0,0,0,111.163-62.273Zm-.232,13.227a5.073,5.073,0,0,1-5.152-5.412,5.065,5.065,0,0,1,5.152-5.383,5.071,5.071,0,0,1,5.181,5.383A5.079,5.079,0,0,1,110.932-49.046Zm10.217,2.258h2.779V-68.264h-2.779Zm28.914.174a6.863,6.863,0,0,0,6.252-3.3L154.2-51.245a4.782,4.782,0,0,1-4.168,2.2,5.083,5.083,0,0,1-5.268-5.412,5.091,5.091,0,0,1,5.268-5.383,4.782,4.782,0,0,1,4.168,2.2L156.315-59a6.841,6.841,0,0,0-6.252-3.271c-4.718,0-8.1,3.242-8.1,7.815S145.345-46.615,150.063-46.615Zm21.852-7.757c0-4.718-3.155-7.9-7.583-7.9a7.513,7.513,0,0,0-7.7,7.815c0,4.573,3.3,7.844,8.249,7.844a7.7,7.7,0,0,0,6.049-2.489L169.4-50.9a5.728,5.728,0,0,1-4.428,1.852c-3.039,0-5.21-1.794-5.557-4.486h12.446C171.886-53.792,171.915-54.14,171.915-54.371Zm-7.583-5.557a4.784,4.784,0,0,1,4.92,4.4h-9.841A4.782,4.782,0,0,1,164.332-59.928Z" transform="translate(-9.66 68.264)" fill="#0b2e4e"/>
    </g>
  </g>
</svg>
