<?xml version="1.0" encoding="utf-8"?>
<!-- Generator: Adobe Illustrator 24.1.3, SVG Export Plug-In . SVG Version: 6.00 Build 0)  -->
<svg version="1.1" id="Layer_1" xmlns="http://www.w3.org/2000/svg" xmlns:xlink="http://www.w3.org/1999/xlink" x="0px" y="0px"
	 viewBox="0 0 485.6 130.2" style="enable-background:new 0 0 485.6 130.2;" xml:space="preserve">
<style type="text/css">
	.st0{fill:#6A7E96;}
	.st1{fill:#FFFFFF;}
</style>
<g>
	<g>
		<path class="st0" d="M156.3,26.5H203v12.3h-35.1v20.6h28.4v12.3h-28.4v21.1h37v12.3h-48.5c-2.1,0-3.9-1.7-3.9-3.9V30.2
			C152.6,28.1,154.2,26.5,156.3,26.5z"/>
		<path class="st0" d="M228.7,76.4l-18-24.8c-0.9-1.3,0-3,1.5-3h14l9.7,15.4c0.9,1.4,2,3.5,2,3.5h0.2c0,0,1.2-2.1,2.1-3.5l9.7-15.4
			h14.1c1.5,0,2.4,1.7,1.5,2.9l-18.1,24.9l18.5,25.4c0.9,1.3,0,3.1-1.6,3.1h-13.6L240,88.5c-0.9-1.2-1.8-3-1.8-3h-0.2
			c0,0-0.9,1.8-1.7,3l-10.8,16.4h-12.5c-2,0-3.2-2.3-2-3.9L228.7,76.4z"/>
		<path class="st0" d="M274.2,50.7c0-1.2,1-2.2,2.2-2.2h11v4.2c0,2.1-0.2,4-0.2,4h0.2c3.8-6.1,10.9-9.5,18.7-9.5
			c15.8,0,25.8,12,25.8,29.5c0,17.9-11.3,29.5-26.6,29.5c-6.6,0-12.7-2.9-16.8-8h-0.2c0,0,0.3,2,0.3,4.9v21.7c0,1.2-1,2.2-2.2,2.2
			h-10.1c-1.2,0-2.2-1-2.2-2.2V50.7z M302.8,94.4c8,0,14.6-6.3,14.6-17.5c0-10.7-5.9-17.7-14.4-17.7c-7.7,0-14.7,5.3-14.7,17.8
			C288.2,85.8,293.3,94.4,302.8,94.4z"/>
		<path class="st0" d="M371,47.2c16.7,0,25.8,11.8,25.8,26.7c0,0.3,0,0.6,0,0.9c-0.1,2.5-2.2,4.6-4.7,4.6h-35.8
			c0.9,9.8,8.7,14.9,17.5,14.9c5.9,0,12-2.5,16.7-6.2l5.7,10.1c-5.9,5.1-15.1,8.1-23.4,8.1c-19.3,0-31.4-13.5-31.4-29.5
			C341.3,59.4,353.6,47.2,371,47.2z M382.4,69.8c-0.1-7.5-5.1-11.9-11.7-11.9c-7.4,0-12.7,4.8-14.1,11.9H382.4z"/>
		<path class="st0" d="M408.6,48.5c1.9,0,8.1,0,9.9,0s2,0.9,2,2.2c0,1.5,0,7.7,0,7.7c0,2.1-0.2,3.9-0.2,3.9h0.2
			c2.6-8,9.7-14.6,18.5-14.6c0.9,0,1.8,0.1,2.7,0.2v13.8c-0.6-0.1-2.3-0.2-3.5-0.2c-11.9,0-17.1,9.9-17.1,20.6v20.7c0,1.1-0.9,2-2,2
			h-10.4c-1.1,0-2-0.9-2-2V50.8C406.5,49.5,406.9,48.5,408.6,48.5z"/>
		<path class="st0" d="M456.5,60.5H449V49.3h7.9c0,0,0-13.3,0-14.3s1-1.8,1.8-1.8s9.4,0,10.5,0c1,0,1.9,0.8,1.9,1.9
			c0,1.1,0,14.2,0,14.2h13.3v11.2H471v22c0,9.3,7.5,10.6,11.5,10.6c0.8,0,1.5,0,2.6-0.2v10.3c0,1.2-0.9,2.1-2,2.2
			c-0.7,0.1-1.5,0.1-2.4,0.1c-8.1,0-24.2-2.3-24.2-21.2V60.5z"/>
	</g>
	<g>
		<path class="st0" d="M116.7,0.9H14.5C7.1,0.9,1.1,7,1.1,14.5v101.9c0,7.5,6,13.6,13.4,13.6h102.2c7.4,0,13.4-6.1,13.4-13.6V14.5
			C130.1,7,124.1,0.9,116.7,0.9z M38.6,102.3H23.9V28h14.6V102.3z M114.2,41H90.9v61.3H76.3V41H53.2V28h61.1V41z"/>
		<rect x="23.9" y="28" class="st1" width="14.6" height="74.3"/>
		<polygon class="st1" points="114.2,41 90.9,41 90.9,102.3 76.3,102.3 76.3,41 53.2,41 53.2,28 114.2,28 		"/>
	</g>
</g>
</svg>
