<?xml version="1.0" encoding="iso-8859-1"?>
<!-- Generator: Adobe Illustrator 19.0.0, SVG Export Plug-In . SVG Version: 6.00 Build 0)  -->
<svg version="1.1" id="Capa_1" xmlns="http://www.w3.org/2000/svg" xmlns:xlink="http://www.w3.org/1999/xlink" x="0px" y="0px"
	 viewBox="0 0 512 512" style="enable-background:new 0 0 512 512;" xml:space="preserve">
<g>
	<g>
		<path fill="white" d="M437.019,74.981C388.667,26.628,324.38,0,256,0S123.333,26.628,74.981,74.981C26.628,123.333,0,187.62,0,256
			s26.628,132.667,74.981,181.019C123.333,485.372,187.62,512,256,512s132.667-26.628,181.019-74.981
			C485.372,388.667,512,324.38,512,256S485.372,123.333,437.019,74.981z M256,481.882C131.448,481.882,30.118,380.552,30.118,256
			S131.448,30.118,256,30.118S481.882,131.448,481.882,256S380.552,481.882,256,481.882z"/>
	</g>
</g>
<g>
	<g>
		<path fill="white" d="M420.955,240.941C413.77,161.596,350.404,98.23,271.059,91.045V75.377h-30.118v15.666
			C161.596,98.23,98.23,161.596,91.045,240.941H74.458v30.118h16.588c7.184,79.345,70.551,142.711,149.896,149.897v15.5h30.118
			v-15.5c79.345-7.185,142.711-70.552,149.897-149.897h16.42v-30.118H420.955z M390.688,271.059
			c-6.966,62.724-56.905,112.663-119.629,119.629v-44.335h-30.118v44.335c-62.724-6.966-112.663-56.905-119.629-119.629h44.335
			v-30.118h-44.335c6.966-62.724,56.905-112.663,119.629-119.629v44.335h30.118v-44.335
			c62.724,6.966,112.663,56.905,119.629,119.629h-44.335v30.118H390.688z"/>
	</g>
</g>
<g>
</g>
<g>
</g>
<g>
</g>
<g>
</g>
<g>
</g>
<g>
</g>
<g>
</g>
<g>
</g>
<g>
</g>
<g>
</g>
<g>
</g>
<g>
</g>
<g>
</g>
<g>
</g>
<g>
</g>
</svg>
