<?xml version="1.0" encoding="utf-8"?>
<!-- Generator: Adobe Illustrator 24.1.3, SVG Export Plug-In . SVG Version: 6.00 Build 0)  -->
<svg version="1.1" id="Layer_1" xmlns="http://www.w3.org/2000/svg" xmlns:xlink="http://www.w3.org/1999/xlink" x="0px" y="0px"
	 viewBox="0 0 406.9 150.6" style="enable-background:new 0 0 406.9 150.6;" xml:space="preserve">
<style type="text/css">
	.st0{fill:#B7D333;}
	.st1{fill:url(#SVGID_1_);}
	.st2{fill:#6A7E96;}
	.st3{fill:none;stroke:#ED3028;stroke-width:4.7448;stroke-linecap:round;stroke-linejoin:round;stroke-miterlimit:10;}
	.st4{fill:#FFFFFF;}
</style>
<g>
	<g>
		<path class="st0" d="M115.6,64.1c-0.8-0.6-1.9-1-3.2-1c-0.5,0-1.1,0.1-1.7,0.2c-7.1,1.6-36.9,12.6-45,15c-2.5,0.8-4.4,1.8-5.8,4.1
			c-1.4,2.1-1.3,4.6-1.3,7.5l0,0.4c0.1,6.9,0,19.1,0,29.9c-0.1,10.8-0.1,21.7,0,24.3c0.1,1.4,0.8,2.7,1.9,3.5
			c1.2,0.9,2.8,1.1,4.6,0.6c11.6-3.2,45.1-14.5,45.1-14.5c1.7-0.5,3.1-1.4,4.3-2.9c1.4-1.8,2.1-3.9,2.5-5.9l-0.4-59.2
			C116.6,65.4,116.3,64.7,115.6,64.1z"/>
		<path class="st0" d="M41.7,78.4c-8.7-3.1-22-7.1-33.9-10.3c-0.7-0.2-1.5-0.3-2.4-0.3c-1,0-2,0.2-2.9,0.9c-1.5,1.2-2.2,3.3-2.2,4.8
			c0,12.8-0.2,27.6,0,38.4c0.1,6.5,0,11.6,0,14.3c0,5.3,4.6,7.9,7.7,9.1c0.7,0.3,1.9,0.8,3.3,1.4c7.4,3.1,24.8,10.2,32.5,12.3
			c1.4,0.4,3,0.1,4.2-0.8c1.2-0.9,1.8-2.4,1.8-4.2l0-9.3c0-13.2,0-35.1,0-45.3C49.9,82.3,44.8,79.4,41.7,78.4z"/>
		<path class="st0" d="M61.7,70.3c10.8-3.6,21.7-7.2,32.5-10.8l6.6-2.2c-6.1-1.6-37.5-10.5-37.5-10.5c-4.8-1.1-6.3-0.6-10.2,0.5
			c-12.4,3.4-32.3,9-40.3,11.5c-0.6,0.2-1.1,0.3-1.6,0.5c6.5,1.8,12.9,3.6,19.4,5.3c6.8,1.9,13.5,3.7,20.3,5.6
			C54.9,71.4,58.4,71.4,61.7,70.3z"/>
	</g>
	<linearGradient id="SVGID_1_" gradientUnits="userSpaceOnUse" x1="69.072" y1="52.6878" x2="297.9739" y2="52.6878">
		<stop  offset="0" style="stop-color:#C9CDD7"/>
		<stop  offset="0.8262" style="stop-color:#6A7E96"/>
		<stop  offset="0.9171" style="stop-color:#6A7E96"/>
	</linearGradient>
	<path class="st1" d="M293.2,104.5H73.8c-2.6,0-4.8-2.1-4.8-4.8V5.6c0-2.6,2.1-4.8,4.8-4.8h219.4c2.6,0,4.8,2.1,4.8,4.8v94.1
		C298,102.4,295.8,104.5,293.2,104.5z"/>
	<path class="st2" d="M115.6,64c-0.8-0.6-1.9-1-3.2-1c-0.5,0-1.1,0.1-1.7,0.2c-6.3,1.4-30.6,10.3-41.6,13.9l-0.1,22.4
		c0,3.5,2.6,5,5.1,5h43V66.2C117,65.3,116.3,64.6,115.6,64z"/>
	<path class="st2" d="M100.8,57.3c-4.5-1.2-22.4-6.2-31.8-8.9v19.4c8.4-2.8,16.7-5.5,25.1-8.3L100.8,57.3z"/>
	<path class="st3" d="M132.8,121.5h171.7c10.1,0,10.4-6.5,10.4-11.6V96.6"/>
	<g>
		<g>
			<path class="st2" d="M312.5,57.2V25.6h11.6c3.2,0,5.8,0.7,7.8,2.1c2,1.4,2.9,3.5,2.9,6.1c0,1.4-0.3,2.6-1,3.9
				c-0.6,1.2-1.5,2.2-2.7,2.9v0.1c1.7,0.5,2.9,1.4,3.7,2.8c0.8,1.3,1.2,2.8,1.2,4.4c0,3.2-1.1,5.6-3.4,7.1c-2.3,1.5-5.1,2.3-8.6,2.3
				H312.5z M320.2,37.9h4c0.9,0,1.6-0.3,2.1-0.8c0.5-0.6,0.7-1.3,0.7-2.1c0-0.8-0.2-1.4-0.7-1.9c-0.5-0.5-1.2-0.8-2.2-0.8h-3.8V37.9
				z M320.2,50.6h4.6c1.1,0,1.9-0.3,2.5-1c0.6-0.6,0.9-1.4,0.9-2.4c0-0.9-0.3-1.7-0.8-2.3c-0.6-0.6-1.4-0.9-2.5-0.9h-4.7V50.6z"/>
			<path class="st2" d="M341.6,41.2c0-4.6,1.5-8.4,4.6-11.5c3.1-3.1,7.1-4.6,11.9-4.6s8.8,1.5,11.9,4.6c3.1,3.1,4.6,6.9,4.6,11.5
				c0,4.7-1.5,8.7-4.6,11.8c-3.1,3.2-7.1,4.7-11.9,4.7s-8.8-1.6-11.9-4.7C343.2,49.9,341.6,45.9,341.6,41.2z M349.6,41.2
				c0,2.7,0.8,5,2.4,6.8c1.6,1.8,3.6,2.7,6.1,2.7s4.5-0.9,6.1-2.7s2.4-4.1,2.4-6.8c0-2.6-0.8-4.8-2.4-6.5c-1.6-1.7-3.6-2.6-6.1-2.6
				s-4.5,0.9-6.1,2.6C350.4,36.5,349.6,38.6,349.6,41.2z"/>
			<path class="st2" d="M377.4,57.2l9.6-15.7l-9.6-15.9h8.8l3.4,6.5l1.9,4.1h0.1c0.6-1.4,1.2-2.7,1.9-4.1l3.5-6.5h8.8l-9.7,15.9
				l9.6,15.7h-8.6l-3.6-6.6l-1.9-3.9h-0.1c-0.6,1.3-1.2,2.6-1.9,3.9l-3.6,6.6H377.4z"/>
		</g>
		<g>
			<g>
				<path class="st2" d="M311.8,72.7c0-2.2,0.7-4,2.2-5.5c1.5-1.5,3.4-2.3,5.9-2.3c1.1,0,2.1,0.2,3.2,0.6c1,0.4,1.9,0.9,2.6,1.7
					l-1.7,2.5c-1.1-1.1-2.4-1.6-3.9-1.6c-1.3,0-2.4,0.4-3.3,1.3c-0.8,0.9-1.3,2-1.3,3.3s0.4,2.4,1.3,3.3c0.9,0.9,2,1.4,3.4,1.4
					c1.6,0,3.1-0.6,4.4-1.9l1.4,2.6c-0.7,0.7-1.6,1.3-2.7,1.8c-1.1,0.4-2.2,0.7-3.4,0.7c-2.4,0-4.4-0.7-5.9-2.2
					C312.5,76.8,311.8,74.9,311.8,72.7z"/>
				<path class="st2" d="M328.7,80.2V65.2h3.6v2.6l-0.1,1h0.1c0.4-1.1,1-2,1.8-2.8c0.9-0.7,1.8-1.1,2.9-1.1c0.2,0,0.4,0,0.7,0.1v3.7
					c-0.2,0-0.5-0.1-0.9-0.1c-1.4,0-2.5,0.5-3.3,1.6c-0.7,1.1-1.1,2.3-1.1,3.9v6H328.7z"/>
				<path class="st2" d="M339.1,72.7c0-2.3,0.7-4.2,2.1-5.6c1.4-1.5,3.2-2.2,5.5-2.2c2.1,0,3.7,0.7,4.9,2c1.2,1.3,1.8,3,1.8,5.1
					c0,0.3,0,0.8-0.1,1.4H343c0.1,1.2,0.6,2.2,1.4,2.9c0.8,0.7,1.9,1,3,1c1.5,0,2.9-0.5,4.3-1.6l1.5,2.7c-0.7,0.7-1.7,1.2-2.7,1.6
					c-1.1,0.4-2.2,0.6-3.3,0.6c-2.4,0-4.3-0.8-5.8-2.3C339.9,76.7,339.1,74.9,339.1,72.7z M343,70.9h6.6c0-1-0.3-1.7-0.9-2.3
					c-0.6-0.6-1.3-0.8-2.1-0.8c-0.9,0-1.7,0.3-2.4,0.9C343.6,69.1,343.2,69.9,343,70.9z"/>
				<path class="st2" d="M355.3,76c0-1.1,0.3-1.9,0.9-2.7c0.6-0.7,1.3-1.3,2.3-1.6c0.9-0.3,1.9-0.6,2.8-0.7c0.9-0.1,1.8-0.2,2.8-0.2
					h0.6v-0.2c0-1.8-0.9-2.6-2.8-2.6c-1.4,0-2.8,0.5-4.2,1.4l-1.4-2.7c0.6-0.5,1.5-0.9,2.6-1.3c1.1-0.4,2.2-0.5,3.2-0.5
					c2,0,3.5,0.5,4.6,1.6c1.1,1,1.6,2.5,1.6,4.4v9.3h-3.5v-1.3l0.1-1.1h-0.1c-0.5,0.8-1.1,1.4-2,1.9c-0.8,0.5-1.8,0.7-2.8,0.7
					c-1.4,0-2.5-0.4-3.5-1.2C355.8,78.4,355.3,77.4,355.3,76z M359,75.7c0,0.5,0.2,1,0.6,1.4c0.4,0.4,1,0.6,1.7,0.6
					c1,0,1.8-0.4,2.5-1.2c0.6-0.8,1-1.7,1-2.7v-0.4H364C360.7,73.3,359,74.1,359,75.7z"/>
				<path class="st2" d="M372.9,74.7v-6.3H371v-3h2v-4.3h3.6v4.3h3.4v3h-3.4v5.8c0,1.1,0.3,1.8,0.9,2.2c0.6,0.4,1.3,0.6,2,0.6
					c0.3,0,0.5,0,0.7-0.1v3.2c-0.6,0.1-1,0.1-1.1,0.1c-0.5,0-1,0-1.5-0.1c-0.5-0.1-1-0.2-1.6-0.5c-0.6-0.2-1.1-0.5-1.6-0.9
					c-0.4-0.4-0.8-0.9-1.1-1.6C373,76.5,372.9,75.6,372.9,74.7z"/>
				<path class="st2" d="M383.1,62.7v-3.3h3.7v3.3H383.1z M383.1,80.2V65.2h3.7v14.9H383.1z"/>
				<path class="st2" d="M392.2,78.3c-1.6-1.5-2.4-3.3-2.4-5.6c0-2.3,0.8-4.1,2.4-5.6c1.6-1.5,3.5-2.2,5.8-2.2
					c2.3,0,4.2,0.7,5.8,2.2c1.6,1.5,2.4,3.3,2.4,5.6c0,2.3-0.8,4.1-2.4,5.6c-1.6,1.5-3.5,2.2-5.8,2.2
					C395.8,80.5,393.8,79.8,392.2,78.3z M393.6,72.7c0,1.4,0.4,2.5,1.3,3.4c0.8,0.9,1.9,1.3,3.1,1.3c1.2,0,2.3-0.4,3.2-1.3
					c0.9-0.9,1.3-2,1.3-3.4c0-1.3-0.4-2.5-1.3-3.3c-0.9-0.9-1.9-1.3-3.1-1.3c-1.2,0-2.3,0.4-3.1,1.3
					C394.1,70.2,393.6,71.4,393.6,72.7z"/>
			</g>
		</g>
	</g>
	<g>
		<g>
			<path class="st4" d="M90.7,80.3V25.2h16.2v55.1H90.7z"/>
			<path class="st4" d="M146,34.8v45.5h-16.2V34.8H117v-9.6h41.7v9.6H146z"/>
			<path class="st4" d="M182.5,81.3c-7.8,0-14.6-1.6-18-3.1V67.7c2.9,1.4,9.7,3.4,14.8,3.4c6,0,9-1.6,9-5.2c0-3.7-1.6-5.2-9.7-8.4
				c-8.5-3.2-13.1-7.4-13.1-16.9c0-9.7,9.3-15.9,21.5-15.9c6.4,0,12,1,14.8,1.7v10.3c-3.5-0.9-8.5-1.9-12.5-1.9
				c-5.3,0-7.9,1.7-7.9,4.5c0,3.2,0.8,4.9,10.2,8.2c9,3.1,13,8.6,13,16.6C204.6,73.7,198.8,81.3,182.5,81.3z"/>
			<path class="st4" d="M262.4,80.3v-28l-14,28h-9.3l-13.7-27.8v27.8h-11.1V25.2h13.1l18.4,36.2l18.3-36.2H277v55.1H262.4z"/>
		</g>
	</g>
</g>
</svg>
