<svg xmlns="http://www.w3.org/2000/svg" viewBox="0 0 131.299 36">
    <defs>
        <style>
            .cls-1{fill:#55c20e}.cls-2{fill:#59e100}.cls-3{fill:#0b2e4e}
        </style>
    </defs>
    <path d="M483.769 300.182l-23.975 5.564 7.139-5.564-29.251-13.864z" class="cls-1" transform="translate(-352.471 -286.318)"/>
    <path d="M483.769 300.182h-16.837l-29.251-13.863z" class="cls-2" transform="translate(-352.471 -286.318)"/>
    <path d="M379.7 319.838c5.748 0 8.421-2.859 8.421-6.183 0-7.986-13.175-4.661-13.175-9.975 0-1.9 1.585-3.449 5.282-3.449a11.228 11.228 0 0 1 5.961 1.769l1.026-2.486a12.8 12.8 0 0 0-6.992-1.927c-5.716 0-8.327 2.858-8.327 6.215 0 8.079 13.176 4.723 13.176 10.036 0 1.9-1.616 3.357-5.376 3.357a11.191 11.191 0 0 1-7.178-2.517l-1.15 2.424c1.739 1.617 5.002 2.736 8.332 2.736zm29.954-.248h3.263l-9.882-21.751h-3.075l-9.85 21.751h3.2l2.4-5.438h11.559zm-12.864-7.924l4.692-10.658 4.692 10.658zm20.1 7.924h14.884v-2.7H420v-19.052h-3.11zm22.31-2.7v-7.022h10.907v-2.641H439.2v-6.68h12.242v-2.7h-15.35v21.751h15.785v-2.7zm24.8 2.953c5.748 0 8.421-2.859 8.421-6.183 0-7.986-13.175-4.661-13.175-9.975 0-1.9 1.585-3.449 5.282-3.449A11.231 11.231 0 0 1 470.49 302l1.026-2.486a12.8 12.8 0 0 0-6.992-1.927c-5.718 0-8.327 2.858-8.327 6.215 0 8.079 13.174 4.723 13.174 10.036 0 1.9-1.615 3.357-5.374 3.357a11.2 11.2 0 0 1-7.179-2.517l-1.149 2.424c1.739 1.617 5.002 2.736 8.331 2.736z" class="cls-3" transform="translate(-371.368 -283.838)"/>
</svg>
