<svg xmlns="http://www.w3.org/2000/svg" xmlns:xlink="http://www.w3.org/1999/xlink" width="376" height="376" viewBox="0 0 376 376">
  <defs>
    <clipPath id="clip-path">
      <rect width="376" height="376" fill="none"/>
    </clipPath>
  </defs>
  <g id="Повторить_сетку_1" data-name="Повторить сетку 1" clip-path="url(#clip-path)">
    <g transform="translate(-431 -317)">
      <circle id="Эллипс_4" data-name="Эллипс 4" cx="12" cy="12" r="12" transform="translate(431 317)" fill="rgba(205,199,251,0.58)"/>
    </g>
    <g transform="translate(-387 -317)">
      <circle id="Эллипс_4-2" data-name="Эллипс 4" cx="12" cy="12" r="12" transform="translate(431 317)" fill="rgba(205,199,251,0.58)"/>
    </g>
    <g transform="translate(-343 -317)">
      <circle id="Эллипс_4-3" data-name="Эллипс 4" cx="12" cy="12" r="12" transform="translate(431 317)" fill="rgba(205,199,251,0.58)"/>
    </g>
    <g transform="translate(-299 -317)">
      <circle id="Эллипс_4-4" data-name="Эллипс 4" cx="12" cy="12" r="12" transform="translate(431 317)" fill="rgba(205,199,251,0.58)"/>
    </g>
    <g transform="translate(-255 -317)">
      <circle id="Эллипс_4-5" data-name="Эллипс 4" cx="12" cy="12" r="12" transform="translate(431 317)" fill="rgba(205,199,251,0.58)"/>
    </g>
    <g transform="translate(-211 -317)">
      <circle id="Эллипс_4-6" data-name="Эллипс 4" cx="12" cy="12" r="12" transform="translate(431 317)" fill="rgba(205,199,251,0.58)"/>
    </g>
    <g transform="translate(-167 -317)">
      <circle id="Эллипс_4-7" data-name="Эллипс 4" cx="12" cy="12" r="12" transform="translate(431 317)" fill="rgba(205,199,251,0.58)"/>
    </g>
    <g transform="translate(-123 -317)">
      <circle id="Эллипс_4-8" data-name="Эллипс 4" cx="12" cy="12" r="12" transform="translate(431 317)" fill="rgba(205,199,251,0.58)"/>
    </g>
    <g transform="translate(-79 -317)">
      <circle id="Эллипс_4-9" data-name="Эллипс 4" cx="12" cy="12" r="12" transform="translate(431 317)" fill="rgba(205,199,251,0.58)"/>
    </g>
    <g transform="translate(-431 -273)">
      <circle id="Эллипс_4-10" data-name="Эллипс 4" cx="12" cy="12" r="12" transform="translate(431 317)" fill="rgba(205,199,251,0.58)"/>
    </g>
    <g transform="translate(-387 -273)">
      <circle id="Эллипс_4-11" data-name="Эллипс 4" cx="12" cy="12" r="12" transform="translate(431 317)" fill="rgba(205,199,251,0.58)"/>
    </g>
    <g transform="translate(-343 -273)">
      <circle id="Эллипс_4-12" data-name="Эллипс 4" cx="12" cy="12" r="12" transform="translate(431 317)" fill="rgba(205,199,251,0.58)"/>
    </g>
    <g transform="translate(-299 -273)">
      <circle id="Эллипс_4-13" data-name="Эллипс 4" cx="12" cy="12" r="12" transform="translate(431 317)" fill="rgba(205,199,251,0.58)"/>
    </g>
    <g transform="translate(-255 -273)">
      <circle id="Эллипс_4-14" data-name="Эллипс 4" cx="12" cy="12" r="12" transform="translate(431 317)" fill="rgba(205,199,251,0.58)"/>
    </g>
    <g transform="translate(-211 -273)">
      <circle id="Эллипс_4-15" data-name="Эллипс 4" cx="12" cy="12" r="12" transform="translate(431 317)" fill="rgba(205,199,251,0.58)"/>
    </g>
    <g transform="translate(-167 -273)">
      <circle id="Эллипс_4-16" data-name="Эллипс 4" cx="12" cy="12" r="12" transform="translate(431 317)" fill="rgba(205,199,251,0.58)"/>
    </g>
    <g transform="translate(-123 -273)">
      <circle id="Эллипс_4-17" data-name="Эллипс 4" cx="12" cy="12" r="12" transform="translate(431 317)" fill="rgba(205,199,251,0.58)"/>
    </g>
    <g transform="translate(-79 -273)">
      <circle id="Эллипс_4-18" data-name="Эллипс 4" cx="12" cy="12" r="12" transform="translate(431 317)" fill="rgba(205,199,251,0.58)"/>
    </g>
    <g transform="translate(-431 -229)">
      <circle id="Эллипс_4-19" data-name="Эллипс 4" cx="12" cy="12" r="12" transform="translate(431 317)" fill="rgba(205,199,251,0.58)"/>
    </g>
    <g transform="translate(-387 -229)">
      <circle id="Эллипс_4-20" data-name="Эллипс 4" cx="12" cy="12" r="12" transform="translate(431 317)" fill="rgba(205,199,251,0.58)"/>
    </g>
    <g transform="translate(-343 -229)">
      <circle id="Эллипс_4-21" data-name="Эллипс 4" cx="12" cy="12" r="12" transform="translate(431 317)" fill="rgba(205,199,251,0.58)"/>
    </g>
    <g transform="translate(-299 -229)">
      <circle id="Эллипс_4-22" data-name="Эллипс 4" cx="12" cy="12" r="12" transform="translate(431 317)" fill="rgba(205,199,251,0.58)"/>
    </g>
    <g transform="translate(-255 -229)">
      <circle id="Эллипс_4-23" data-name="Эллипс 4" cx="12" cy="12" r="12" transform="translate(431 317)" fill="rgba(205,199,251,0.58)"/>
    </g>
    <g transform="translate(-211 -229)">
      <circle id="Эллипс_4-24" data-name="Эллипс 4" cx="12" cy="12" r="12" transform="translate(431 317)" fill="rgba(205,199,251,0.58)"/>
    </g>
    <g transform="translate(-167 -229)">
      <circle id="Эллипс_4-25" data-name="Эллипс 4" cx="12" cy="12" r="12" transform="translate(431 317)" fill="rgba(205,199,251,0.58)"/>
    </g>
    <g transform="translate(-123 -229)">
      <circle id="Эллипс_4-26" data-name="Эллипс 4" cx="12" cy="12" r="12" transform="translate(431 317)" fill="rgba(205,199,251,0.58)"/>
    </g>
    <g transform="translate(-79 -229)">
      <circle id="Эллипс_4-27" data-name="Эллипс 4" cx="12" cy="12" r="12" transform="translate(431 317)" fill="rgba(205,199,251,0.58)"/>
    </g>
    <g transform="translate(-431 -185)">
      <circle id="Эллипс_4-28" data-name="Эллипс 4" cx="12" cy="12" r="12" transform="translate(431 317)" fill="rgba(205,199,251,0.58)"/>
    </g>
    <g transform="translate(-387 -185)">
      <circle id="Эллипс_4-29" data-name="Эллипс 4" cx="12" cy="12" r="12" transform="translate(431 317)" fill="rgba(205,199,251,0.58)"/>
    </g>
    <g transform="translate(-343 -185)">
      <circle id="Эллипс_4-30" data-name="Эллипс 4" cx="12" cy="12" r="12" transform="translate(431 317)" fill="rgba(205,199,251,0.58)"/>
    </g>
    <g transform="translate(-299 -185)">
      <circle id="Эллипс_4-31" data-name="Эллипс 4" cx="12" cy="12" r="12" transform="translate(431 317)" fill="rgba(205,199,251,0.58)"/>
    </g>
    <g transform="translate(-255 -185)">
      <circle id="Эллипс_4-32" data-name="Эллипс 4" cx="12" cy="12" r="12" transform="translate(431 317)" fill="rgba(205,199,251,0.58)"/>
    </g>
    <g transform="translate(-211 -185)">
      <circle id="Эллипс_4-33" data-name="Эллипс 4" cx="12" cy="12" r="12" transform="translate(431 317)" fill="rgba(205,199,251,0.58)"/>
    </g>
    <g transform="translate(-167 -185)">
      <circle id="Эллипс_4-34" data-name="Эллипс 4" cx="12" cy="12" r="12" transform="translate(431 317)" fill="rgba(205,199,251,0.58)"/>
    </g>
    <g transform="translate(-123 -185)">
      <circle id="Эллипс_4-35" data-name="Эллипс 4" cx="12" cy="12" r="12" transform="translate(431 317)" fill="rgba(205,199,251,0.58)"/>
    </g>
    <g transform="translate(-79 -185)">
      <circle id="Эллипс_4-36" data-name="Эллипс 4" cx="12" cy="12" r="12" transform="translate(431 317)" fill="rgba(205,199,251,0.58)"/>
    </g>
    <g transform="translate(-431 -141)">
      <circle id="Эллипс_4-37" data-name="Эллипс 4" cx="12" cy="12" r="12" transform="translate(431 317)" fill="rgba(205,199,251,0.58)"/>
    </g>
    <g transform="translate(-387 -141)">
      <circle id="Эллипс_4-38" data-name="Эллипс 4" cx="12" cy="12" r="12" transform="translate(431 317)" fill="rgba(205,199,251,0.58)"/>
    </g>
    <g transform="translate(-343 -141)">
      <circle id="Эллипс_4-39" data-name="Эллипс 4" cx="12" cy="12" r="12" transform="translate(431 317)" fill="rgba(205,199,251,0.58)"/>
    </g>
    <g transform="translate(-299 -141)">
      <circle id="Эллипс_4-40" data-name="Эллипс 4" cx="12" cy="12" r="12" transform="translate(431 317)" fill="rgba(205,199,251,0.58)"/>
    </g>
    <g transform="translate(-255 -141)">
      <circle id="Эллипс_4-41" data-name="Эллипс 4" cx="12" cy="12" r="12" transform="translate(431 317)" fill="rgba(205,199,251,0.58)"/>
    </g>
    <g transform="translate(-211 -141)">
      <circle id="Эллипс_4-42" data-name="Эллипс 4" cx="12" cy="12" r="12" transform="translate(431 317)" fill="rgba(205,199,251,0.58)"/>
    </g>
    <g transform="translate(-167 -141)">
      <circle id="Эллипс_4-43" data-name="Эллипс 4" cx="12" cy="12" r="12" transform="translate(431 317)" fill="rgba(205,199,251,0.58)"/>
    </g>
    <g transform="translate(-123 -141)">
      <circle id="Эллипс_4-44" data-name="Эллипс 4" cx="12" cy="12" r="12" transform="translate(431 317)" fill="rgba(205,199,251,0.58)"/>
    </g>
    <g transform="translate(-79 -141)">
      <circle id="Эллипс_4-45" data-name="Эллипс 4" cx="12" cy="12" r="12" transform="translate(431 317)" fill="rgba(205,199,251,0.58)"/>
    </g>
    <g transform="translate(-431 -97)">
      <circle id="Эллипс_4-46" data-name="Эллипс 4" cx="12" cy="12" r="12" transform="translate(431 317)" fill="rgba(205,199,251,0.58)"/>
    </g>
    <g transform="translate(-387 -97)">
      <circle id="Эллипс_4-47" data-name="Эллипс 4" cx="12" cy="12" r="12" transform="translate(431 317)" fill="rgba(205,199,251,0.58)"/>
    </g>
    <g transform="translate(-343 -97)">
      <circle id="Эллипс_4-48" data-name="Эллипс 4" cx="12" cy="12" r="12" transform="translate(431 317)" fill="rgba(205,199,251,0.58)"/>
    </g>
    <g transform="translate(-299 -97)">
      <circle id="Эллипс_4-49" data-name="Эллипс 4" cx="12" cy="12" r="12" transform="translate(431 317)" fill="rgba(205,199,251,0.58)"/>
    </g>
    <g transform="translate(-255 -97)">
      <circle id="Эллипс_4-50" data-name="Эллипс 4" cx="12" cy="12" r="12" transform="translate(431 317)" fill="rgba(205,199,251,0.58)"/>
    </g>
    <g transform="translate(-211 -97)">
      <circle id="Эллипс_4-51" data-name="Эллипс 4" cx="12" cy="12" r="12" transform="translate(431 317)" fill="rgba(205,199,251,0.58)"/>
    </g>
    <g transform="translate(-167 -97)">
      <circle id="Эллипс_4-52" data-name="Эллипс 4" cx="12" cy="12" r="12" transform="translate(431 317)" fill="rgba(205,199,251,0.58)"/>
    </g>
    <g transform="translate(-123 -97)">
      <circle id="Эллипс_4-53" data-name="Эллипс 4" cx="12" cy="12" r="12" transform="translate(431 317)" fill="rgba(205,199,251,0.58)"/>
    </g>
    <g transform="translate(-79 -97)">
      <circle id="Эллипс_4-54" data-name="Эллипс 4" cx="12" cy="12" r="12" transform="translate(431 317)" fill="rgba(205,199,251,0.58)"/>
    </g>
    <g transform="translate(-431 -53)">
      <circle id="Эллипс_4-55" data-name="Эллипс 4" cx="12" cy="12" r="12" transform="translate(431 317)" fill="rgba(205,199,251,0.58)"/>
    </g>
    <g transform="translate(-387 -53)">
      <circle id="Эллипс_4-56" data-name="Эллипс 4" cx="12" cy="12" r="12" transform="translate(431 317)" fill="rgba(205,199,251,0.58)"/>
    </g>
    <g transform="translate(-343 -53)">
      <circle id="Эллипс_4-57" data-name="Эллипс 4" cx="12" cy="12" r="12" transform="translate(431 317)" fill="rgba(205,199,251,0.58)"/>
    </g>
    <g transform="translate(-299 -53)">
      <circle id="Эллипс_4-58" data-name="Эллипс 4" cx="12" cy="12" r="12" transform="translate(431 317)" fill="rgba(205,199,251,0.58)"/>
    </g>
    <g transform="translate(-255 -53)">
      <circle id="Эллипс_4-59" data-name="Эллипс 4" cx="12" cy="12" r="12" transform="translate(431 317)" fill="rgba(205,199,251,0.58)"/>
    </g>
    <g transform="translate(-211 -53)">
      <circle id="Эллипс_4-60" data-name="Эллипс 4" cx="12" cy="12" r="12" transform="translate(431 317)" fill="rgba(205,199,251,0.58)"/>
    </g>
    <g transform="translate(-167 -53)">
      <circle id="Эллипс_4-61" data-name="Эллипс 4" cx="12" cy="12" r="12" transform="translate(431 317)" fill="rgba(205,199,251,0.58)"/>
    </g>
    <g transform="translate(-123 -53)">
      <circle id="Эллипс_4-62" data-name="Эллипс 4" cx="12" cy="12" r="12" transform="translate(431 317)" fill="rgba(205,199,251,0.58)"/>
    </g>
    <g transform="translate(-79 -53)">
      <circle id="Эллипс_4-63" data-name="Эллипс 4" cx="12" cy="12" r="12" transform="translate(431 317)" fill="rgba(205,199,251,0.58)"/>
    </g>
    <g transform="translate(-431 -9)">
      <circle id="Эллипс_4-64" data-name="Эллипс 4" cx="12" cy="12" r="12" transform="translate(431 317)" fill="rgba(205,199,251,0.58)"/>
    </g>
    <g transform="translate(-387 -9)">
      <circle id="Эллипс_4-65" data-name="Эллипс 4" cx="12" cy="12" r="12" transform="translate(431 317)" fill="rgba(205,199,251,0.58)"/>
    </g>
    <g transform="translate(-343 -9)">
      <circle id="Эллипс_4-66" data-name="Эллипс 4" cx="12" cy="12" r="12" transform="translate(431 317)" fill="rgba(205,199,251,0.58)"/>
    </g>
    <g transform="translate(-299 -9)">
      <circle id="Эллипс_4-67" data-name="Эллипс 4" cx="12" cy="12" r="12" transform="translate(431 317)" fill="rgba(205,199,251,0.58)"/>
    </g>
    <g transform="translate(-255 -9)">
      <circle id="Эллипс_4-68" data-name="Эллипс 4" cx="12" cy="12" r="12" transform="translate(431 317)" fill="rgba(205,199,251,0.58)"/>
    </g>
    <g transform="translate(-211 -9)">
      <circle id="Эллипс_4-69" data-name="Эллипс 4" cx="12" cy="12" r="12" transform="translate(431 317)" fill="rgba(205,199,251,0.58)"/>
    </g>
    <g transform="translate(-167 -9)">
      <circle id="Эллипс_4-70" data-name="Эллипс 4" cx="12" cy="12" r="12" transform="translate(431 317)" fill="rgba(205,199,251,0.58)"/>
    </g>
    <g transform="translate(-123 -9)">
      <circle id="Эллипс_4-71" data-name="Эллипс 4" cx="12" cy="12" r="12" transform="translate(431 317)" fill="rgba(205,199,251,0.58)"/>
    </g>
    <g transform="translate(-79 -9)">
      <circle id="Эллипс_4-72" data-name="Эллипс 4" cx="12" cy="12" r="12" transform="translate(431 317)" fill="rgba(205,199,251,0.58)"/>
    </g>
    <g transform="translate(-431 35)">
      <circle id="Эллипс_4-73" data-name="Эллипс 4" cx="12" cy="12" r="12" transform="translate(431 317)" fill="rgba(205,199,251,0.58)"/>
    </g>
    <g transform="translate(-387 35)">
      <circle id="Эллипс_4-74" data-name="Эллипс 4" cx="12" cy="12" r="12" transform="translate(431 317)" fill="rgba(205,199,251,0.58)"/>
    </g>
    <g transform="translate(-343 35)">
      <circle id="Эллипс_4-75" data-name="Эллипс 4" cx="12" cy="12" r="12" transform="translate(431 317)" fill="rgba(205,199,251,0.58)"/>
    </g>
    <g transform="translate(-299 35)">
      <circle id="Эллипс_4-76" data-name="Эллипс 4" cx="12" cy="12" r="12" transform="translate(431 317)" fill="rgba(205,199,251,0.58)"/>
    </g>
    <g transform="translate(-255 35)">
      <circle id="Эллипс_4-77" data-name="Эллипс 4" cx="12" cy="12" r="12" transform="translate(431 317)" fill="rgba(205,199,251,0.58)"/>
    </g>
    <g transform="translate(-211 35)">
      <circle id="Эллипс_4-78" data-name="Эллипс 4" cx="12" cy="12" r="12" transform="translate(431 317)" fill="rgba(205,199,251,0.58)"/>
    </g>
    <g transform="translate(-167 35)">
      <circle id="Эллипс_4-79" data-name="Эллипс 4" cx="12" cy="12" r="12" transform="translate(431 317)" fill="rgba(205,199,251,0.58)"/>
    </g>
    <g transform="translate(-123 35)">
      <circle id="Эллипс_4-80" data-name="Эллипс 4" cx="12" cy="12" r="12" transform="translate(431 317)" fill="rgba(205,199,251,0.58)"/>
    </g>
    <g transform="translate(-79 35)">
      <circle id="Эллипс_4-81" data-name="Эллипс 4" cx="12" cy="12" r="12" transform="translate(431 317)" fill="rgba(205,199,251,0.58)"/>
    </g>
  </g>
</svg>
